<svg width="544" height="254" viewBox="0 0 544 254" fill="none" xmlns="http://www.w3.org/2000/svg">
<g filter="url(#filter0_d_698_103)">
<path d="M11.424 235V167.8H53.952V175.864H20.064V200.44H45.216V202.36H20.064V235H11.424ZM66.6428 235V167.8H75.2828V235H66.6428ZM98.1428 235V167.8H106.783V226.648H142.207V235H98.1428ZM157.112 235V167.8H165.752V235H157.112ZM214.163 236.44C208.083 236.44 202.611 234.968 197.747 232.024C192.883 229.08 189.075 224.952 186.323 219.64C183.571 214.328 182.195 208.248 182.195 201.4C182.195 194.68 183.667 188.664 186.611 183.352C189.619 178.04 193.715 173.88 198.899 170.872C204.147 167.864 210.067 166.36 216.659 166.36C222.227 166.36 227.283 167.448 231.827 169.624C236.435 171.736 240.211 174.744 243.155 178.648C246.163 182.552 248.147 187.096 249.107 192.28H239.987C238.771 186.776 236.083 182.456 231.923 179.32C227.827 176.12 222.803 174.52 216.851 174.52C211.859 174.52 207.379 175.672 203.411 177.976C199.507 180.28 196.467 183.48 194.291 187.576C192.115 191.672 191.027 196.344 191.027 201.592C191.027 206.904 192.115 211.64 194.291 215.8C196.531 219.896 199.635 223.128 203.603 225.496C207.571 227.8 212.083 228.952 217.139 228.952C221.875 228.952 226.131 227.864 229.907 225.688C233.747 223.512 236.723 220.536 238.835 216.76C241.011 212.92 242.099 208.6 242.099 203.8V202.36H217.907V200.44H249.587V235H242.099V212.344C240.627 219.768 237.395 225.656 232.403 230.008C227.475 234.296 221.395 236.44 214.163 236.44ZM268.018 235V167.8H289.618C297.618 167.8 303.89 169.528 308.434 172.984C313.042 176.376 315.346 181.048 315.346 187C315.346 191.864 313.842 195.896 310.834 199.096C307.826 202.296 303.634 204.376 298.258 205.336L321.49 235H311.602L288.946 206.104C288.626 206.168 288.274 206.2 287.89 206.2C287.57 206.2 287.25 206.2 286.93 206.2H276.562V235H268.018ZM288.754 204.28C294.322 204.28 298.706 203 301.906 200.44C305.106 197.816 306.706 194.296 306.706 189.88C306.706 185.4 305.106 181.88 301.906 179.32C298.706 176.76 294.322 175.48 288.754 175.48H276.562V204.28H288.754ZM324.413 235L351.677 167.8H362.909L390.173 235H381.053L372.605 214.264H341.789L333.341 235H324.413ZM342.557 212.44H371.837L357.245 176.824L342.557 212.44ZM403.205 235V167.8H412.133L452.357 231.256V167.8H460.997V235H452.165L411.845 171.544V235H403.205ZM474.038 235L501.302 167.8H512.534L539.798 235H530.678L522.23 214.264H491.414L482.966 235H474.038ZM492.182 212.44H521.462L506.87 176.824L492.182 212.44Z" fill="#2B2B2B"/>
</g>
<g filter="url(#filter1_d_698_103)">
<path d="M227.421 70.3666C220.12 69.5259 215.337 67.3285 210.874 62.9337C206.798 58.7682 204.619 54.4212 198.549 37.8644C190.154 14.8969 189.254 8.82067 193.427 3.76668C195.557 1.29223 198.307 0.212646 202.722 0.212646C210.351 0.212646 222.493 6.05961 234.857 15.6517C240.211 19.8172 250.977 30.6226 254.153 35.1129C260.456 43.8165 263.487 52.4627 263.535 61.3573C263.535 68.5609 263.012 69.0769 254.763 70.1087C248.789 70.9016 233.24 71.0449 227.411 70.3857L227.421 70.3666Z" fill="#2B2B2B"/>
<path d="M207.127 127.155C201.676 124.814 200.495 119.904 203.051 110.455C206.895 96.1909 214.33 85.0989 223.102 80.5226C231.971 75.9367 239.552 74.4846 258.462 73.8349C264.484 73.6056 264.958 73.6438 265.007 74.4463C265.433 80.064 262.063 94.5572 258.51 102.42C252.817 115.146 240.259 123.467 220.963 127.394C217.216 128.139 209.112 128.005 207.117 127.165L207.127 127.155Z" fill="#2B2B2B"/>
<path d="M269 37.5C269 31.695 269.255 31 271.5 31C273.745 31 274 31.695 274 37.5C274 43.305 273.745 44 271.5 44C269.255 44 269 43.305 269 37.5Z" fill="#2B2B2B"/>
<path d="M269.816 100.511C267.87 99.7183 267.686 98.2183 268.247 87.8811C268.528 82.5978 268.915 71.9357 269.099 64.1684L269.38 50H271.229H273.03V56.6877C273.079 66.5568 273.505 82.0436 273.931 89.7058C274.357 96.9572 274.076 99.2979 272.701 100.272C271.704 101.065 271.278 101.065 269.806 100.502L269.816 100.511Z" fill="#2B2B2B"/>
<path d="M322.817 127.525C311.672 125.327 300.916 120.646 294.564 115.267C288.116 109.888 283.662 101.003 280.68 87.6278C279.634 83.1852 278.734 75.9339 279.073 75.0453C279.45 74.0613 282.442 73.832 290.778 74.1091C313.154 74.902 324.579 79.679 332.402 91.5066C337.621 99.3217 342.258 112.506 342.258 119.242C342.21 123.034 339.983 126.588 336.904 127.706C335.103 128.404 326.622 128.27 322.826 127.515L322.817 127.525Z" fill="#2B2B2B"/>
<path d="M295.535 70.3668C287.334 69.7554 280.982 68.9147 279.327 68.265C278.049 67.7013 277.807 67.3287 277.477 65.4084C277.003 62.2747 277.574 55.8163 278.659 51.5649C280.886 42.9568 285.678 35.4762 294.818 26.2089C307.143 13.722 319.324 5.39105 330.845 1.55996C336.248 -0.264832 341.321 -0.494125 344.265 0.900738C346.821 2.06631 349.145 4.97068 349.813 7.77952C350.946 12.3176 349.764 17.2761 343.655 34.3966C338.959 47.5427 335.502 55.6348 333.034 59.2366C329.432 64.6154 323.884 68.3128 317.339 69.6694C313.166 70.5579 302.312 70.8828 295.535 70.3668Z" fill="#2B2B2B"/>
<path d="M275.016 32.9655C275.037 32.917 275.057 32.8621 275.078 32.8012C275.047 32.8485 275.027 32.9034 275.016 32.9655Z" fill="#2B2B2B"/>
</g>
<g filter="url(#filter2_d_698_103)">
<path d="M354.004 128.168C353.033 128.168 352.221 127.944 351.568 127.496C350.924 127.048 350.555 126.409 350.462 125.578H351.61C351.694 126.129 351.955 126.544 352.394 126.824C352.833 127.095 353.355 127.23 353.962 127.23C354.261 127.23 354.559 127.188 354.858 127.104C355.157 127.02 355.409 126.88 355.614 126.684C355.819 126.488 355.922 126.241 355.922 125.942C355.922 125.662 355.838 125.438 355.67 125.27C355.511 125.102 355.292 124.976 355.012 124.892C354.732 124.808 354.349 124.729 353.864 124.654C353.808 124.645 353.752 124.635 353.696 124.626C353.64 124.617 353.579 124.607 353.514 124.598C352.889 124.505 352.375 124.402 351.974 124.29C351.582 124.169 351.269 123.996 351.036 123.772C350.812 123.548 350.7 123.24 350.7 122.848C350.7 122.409 350.835 122.041 351.106 121.742C351.377 121.434 351.731 121.205 352.17 121.056C352.618 120.907 353.113 120.832 353.654 120.832C354.587 120.832 355.353 121.056 355.95 121.504C356.547 121.943 356.883 122.577 356.958 123.408H355.852C355.787 122.867 355.553 122.461 355.152 122.19C354.751 121.919 354.265 121.784 353.696 121.784C353.201 121.784 352.763 121.896 352.38 122.12C352.007 122.335 351.82 122.666 351.82 123.114C351.82 123.357 351.895 123.562 352.044 123.73C352.193 123.889 352.403 124.015 352.674 124.108C352.945 124.192 353.285 124.271 353.696 124.346C353.771 124.355 353.841 124.365 353.906 124.374C353.971 124.383 354.041 124.393 354.116 124.402C354.153 124.411 354.186 124.416 354.214 124.416C354.242 124.416 354.275 124.421 354.312 124.43C354.909 124.523 355.395 124.631 355.768 124.752C356.151 124.873 356.449 125.055 356.664 125.298C356.888 125.531 357 125.839 357 126.222C357 126.651 356.855 127.015 356.566 127.314C356.277 127.603 355.903 127.818 355.446 127.958C354.998 128.098 354.517 128.168 354.004 128.168ZM361.987 128.14C361.138 128.14 360.508 127.949 360.097 127.566C359.687 127.174 359.481 126.6 359.481 125.844V122.022H357.773V121H359.075C359.243 121 359.369 120.958 359.453 120.874C359.537 120.781 359.579 120.65 359.579 120.482V119.32H360.601L360.587 121H363.597V122.022H360.587V125.606C360.587 126.119 360.718 126.497 360.979 126.74C361.241 126.973 361.647 127.09 362.197 127.09C362.599 127.09 363.065 127.025 363.597 126.894V127.916C363.355 127.972 363.079 128.023 362.771 128.07C362.473 128.117 362.211 128.14 361.987 128.14ZM368.047 128.14C367.459 128.14 366.945 128.005 366.507 127.734C366.077 127.463 365.746 127.076 365.513 126.572C365.289 126.068 365.177 125.475 365.177 124.794V121H366.297L366.311 124.64C366.311 125.396 366.507 125.993 366.899 126.432C367.3 126.871 367.841 127.09 368.523 127.09C368.933 127.09 369.307 126.983 369.643 126.768C369.988 126.553 370.259 126.259 370.455 125.886C370.651 125.513 370.749 125.097 370.749 124.64V121H371.869V128H370.749V125.802C370.571 126.511 370.24 127.081 369.755 127.51C369.269 127.93 368.7 128.14 368.047 128.14ZM377.065 128.14C376.468 128.14 375.926 127.981 375.441 127.664C374.956 127.347 374.573 126.913 374.293 126.362C374.013 125.802 373.873 125.181 373.873 124.5C373.873 123.819 374.013 123.203 374.293 122.652C374.573 122.092 374.956 121.653 375.441 121.336C375.926 121.019 376.468 120.86 377.065 120.86C377.774 120.86 378.386 121.079 378.899 121.518C379.422 121.957 379.79 122.54 380.005 123.268V118.06H381.111V128H380.005V125.718C379.79 126.455 379.422 127.043 378.899 127.482C378.386 127.921 377.774 128.14 377.065 128.14ZM377.513 127.09C377.98 127.09 378.404 126.978 378.787 126.754C379.17 126.521 379.468 126.208 379.683 125.816C379.907 125.424 380.019 124.985 380.019 124.5C380.019 124.015 379.907 123.576 379.683 123.184C379.468 122.783 379.17 122.47 378.787 122.246C378.404 122.013 377.98 121.896 377.513 121.896C377.046 121.896 376.622 122.013 376.239 122.246C375.856 122.47 375.553 122.783 375.329 123.184C375.114 123.576 375.007 124.015 375.007 124.5C375.007 124.985 375.114 125.424 375.329 125.816C375.553 126.208 375.856 126.521 376.239 126.754C376.622 126.978 377.046 127.09 377.513 127.09ZM383.801 128V121H384.921V128H383.801ZM384.291 120.006L383.647 117.57H385.089L384.431 120.006H384.291ZM390.667 128.14C389.967 128.14 389.328 127.981 388.749 127.664C388.18 127.347 387.732 126.913 387.405 126.362C387.088 125.802 386.929 125.181 386.929 124.5C386.929 123.819 387.088 123.203 387.405 122.652C387.732 122.092 388.18 121.653 388.749 121.336C389.328 121.019 389.967 120.86 390.667 120.86C391.358 120.86 391.988 121.019 392.557 121.336C393.127 121.653 393.575 122.092 393.901 122.652C394.237 123.203 394.405 123.819 394.405 124.5C394.405 125.181 394.237 125.802 393.901 126.362C393.575 126.913 393.127 127.347 392.557 127.664C391.988 127.981 391.358 128.14 390.667 128.14ZM390.667 127.09C391.143 127.09 391.577 126.978 391.969 126.754C392.371 126.521 392.683 126.208 392.907 125.816C393.141 125.424 393.257 124.985 393.257 124.5C393.257 124.015 393.141 123.576 392.907 123.184C392.683 122.783 392.371 122.47 391.969 122.246C391.577 122.013 391.143 121.896 390.667 121.896C390.182 121.896 389.739 122.013 389.337 122.246C388.945 122.47 388.633 122.783 388.399 123.184C388.175 123.576 388.063 124.015 388.063 124.5C388.063 124.985 388.175 125.424 388.399 125.816C388.633 126.208 388.945 126.521 389.337 126.754C389.739 126.978 390.182 127.09 390.667 127.09Z" fill="#2B2B2B"/>
</g>
<defs>
<filter id="filter0_d_698_103" x="7.42395" y="166.36" width="536.374" height="78.0798" filterUnits="userSpaceOnUse" color-interpolation-filters="sRGB">
<feFlood flood-opacity="0" result="BackgroundImageFix"/>
<feColorMatrix in="SourceAlpha" type="matrix" values="0 0 0 0 0 0 0 0 0 0 0 0 0 0 0 0 0 0 127 0" result="hardAlpha"/>
<feOffset dy="4"/>
<feGaussianBlur stdDeviation="2"/>
<feComposite in2="hardAlpha" operator="out"/>
<feColorMatrix type="matrix" values="0 0 0 0 0 0 0 0 0 0 0 0 0 0 0 0 0 0 0.25 0"/>
<feBlend mode="normal" in2="BackgroundImageFix" result="effect1_dropShadow_698_103"/>
<feBlend mode="normal" in="SourceGraphic" in2="effect1_dropShadow_698_103" result="shape"/>
</filter>
<filter id="filter1_d_698_103" x="187" y="0" width="167.197" height="136.162" filterUnits="userSpaceOnUse" color-interpolation-filters="sRGB">
<feFlood flood-opacity="0" result="BackgroundImageFix"/>
<feColorMatrix in="SourceAlpha" type="matrix" values="0 0 0 0 0 0 0 0 0 0 0 0 0 0 0 0 0 0 127 0" result="hardAlpha"/>
<feOffset dy="4"/>
<feGaussianBlur stdDeviation="2"/>
<feComposite in2="hardAlpha" operator="out"/>
<feColorMatrix type="matrix" values="0 0 0 0 0 0 0 0 0 0 0 0 0 0 0 0 0 0 0.25 0"/>
<feBlend mode="normal" in2="BackgroundImageFix" result="effect1_dropShadow_698_103"/>
<feBlend mode="normal" in="SourceGraphic" in2="effect1_dropShadow_698_103" result="shape"/>
</filter>
<filter id="filter2_d_698_103" x="348.523" y="117.57" width="47.8223" height="14.4767" filterUnits="userSpaceOnUse" color-interpolation-filters="sRGB">
<feFlood flood-opacity="0" result="BackgroundImageFix"/>
<feColorMatrix in="SourceAlpha" type="matrix" values="0 0 0 0 0 0 0 0 0 0 0 0 0 0 0 0 0 0 127 0" result="hardAlpha"/>
<feOffset dy="1.93939"/>
<feGaussianBlur stdDeviation="0.969697"/>
<feComposite in2="hardAlpha" operator="out"/>
<feColorMatrix type="matrix" values="0 0 0 0 0 0 0 0 0 0 0 0 0 0 0 0 0 0 0.25 0"/>
<feBlend mode="normal" in2="BackgroundImageFix" result="effect1_dropShadow_698_103"/>
<feBlend mode="normal" in="SourceGraphic" in2="effect1_dropShadow_698_103" result="shape"/>
</filter>
</defs>
</svg>
