<svg width="128" height="128" viewBox="180 -8 200 148" fill="none" xmlns="http://www.w3.org/2000/svg">
<path d="M227.421 70.3666C220.12 69.5259 215.337 67.3285 210.874 62.9337C206.798 58.7682 204.619 54.4212 198.549 37.8644C190.154 14.8969 189.254 8.82067 193.427 3.76668C195.557 1.29223 198.307 0.212646 202.722 0.212646C210.351 0.212646 222.493 6.05961 234.857 15.6517C240.211 19.8172 250.977 30.6226 254.153 35.1129C260.456 43.8165 263.487 52.4627 263.535 61.3573C263.535 68.5609 263.012 69.0769 254.763 70.1087C248.789 70.9016 233.24 71.0449 227.411 70.3857L227.421 70.3666Z" fill="#2B2B2B"/>
<path d="M207.127 127.155C201.676 124.814 200.495 119.904 203.051 110.455C206.895 96.1909 214.33 85.0989 223.102 80.5226C231.971 75.9367 239.552 74.4846 258.462 73.8349C264.484 73.6056 264.958 73.6438 265.007 74.4463C265.433 80.064 262.063 94.5572 258.51 102.42C252.817 115.146 240.259 123.467 220.963 127.394C217.216 128.139 209.112 128.005 207.117 127.165L207.127 127.155Z" fill="#2B2B2B"/>
<path d="M269 37.5C269 31.695 269.255 31 271.5 31C273.745 31 274 31.695 274 37.5C274 43.305 273.745 44 271.5 44C269.255 44 269 43.305 269 37.5Z" fill="#2B2B2B"/>
<path d="M269.816 100.511C267.87 99.7183 267.686 98.2183 268.247 87.8811C268.528 82.5978 268.915 71.9357 269.099 64.1684L269.38 50H271.229H273.03V56.6877C273.079 66.5568 273.505 82.0436 273.931 89.7058C274.357 96.9572 274.076 99.2979 272.701 100.272C271.704 101.065 271.278 101.065 269.806 100.502L269.816 100.511Z" fill="#2B2B2B"/>
<path d="M322.817 127.525C311.672 125.327 300.916 120.646 294.564 115.267C288.116 109.888 283.662 101.003 280.68 87.6278C279.634 83.1852 278.734 75.9339 279.073 75.0453C279.45 74.0613 282.442 73.832 290.778 74.1091C313.154 74.902 324.579 79.679 332.402 91.5066C337.621 99.3217 342.258 112.506 342.258 119.242C342.21 123.034 339.983 126.588 336.904 127.706C335.103 128.404 326.622 128.27 322.826 127.515L322.817 127.525Z" fill="#2B2B2B"/>
<path d="M295.535 70.3668C287.334 69.7554 280.982 68.9147 279.327 68.265C278.049 67.7013 277.807 67.3287 277.477 65.4084C277.003 62.2747 277.574 55.8163 278.659 51.5649C280.886 42.9568 285.678 35.4762 294.818 26.2089C307.143 13.722 319.324 5.39105 330.845 1.55996C336.248 -0.264832 341.321 -0.494125 344.265 0.900738C346.821 2.06631 349.145 4.97068 349.813 7.77952C350.946 12.3176 349.764 17.2761 343.655 34.3966C338.959 47.5427 335.502 55.6348 333.034 59.2366C329.432 64.6154 323.884 68.3128 317.339 69.6694C313.166 70.5579 302.312 70.8828 295.535 70.3668Z" fill="#2B2B2B"/>
<path d="M275.016 32.9655C275.037 32.917 275.057 32.8621 275.078 32.8012C275.047 32.8485 275.027 32.9034 275.016 32.9655Z" fill="#2B2B2B"/>
</svg>
